<svg viewBox="0 0 48 49" xmlns="http://www.w3.org/2000/svg">
  <path
    d="M43.6802 8.40784H45.4738C46.1438 8.40784 46.7864 8.67545 47.2601 9.15181C47.7339 9.62816 48 10.2742 48 10.9479V28.7283C48 29.402 47.7339 30.0481 47.2601 30.5244C46.7864 31.0008 46.1438 31.2684 45.4738 31.2684H40.4215L29.8873 16.4446C29.2746 15.5826 28.4092 14.9348 27.4122 14.5918C26.4152 14.2489 25.3366 14.2279 24.3271 14.5319L18.0471 16.4268C17.1734 16.6898 16.2453 16.7101 15.3612 16.4856C14.477 16.2611 13.6697 15.8002 13.025 15.1517L12.2848 14.4075C12.0206 14.1418 11.8182 13.8205 11.6923 13.4667C11.5665 13.1129 11.5203 12.7355 11.557 12.3615C11.5937 11.9876 11.7125 11.6265 11.9047 11.3044C12.097 10.9822 12.358 10.7069 12.6688 10.4983L26.3127 1.35409C27.1272 0.807748 28.082 0.51113 29.061 0.500307C30.0401 0.489484 31.0011 0.764923 31.8274 1.29313L42.3262 8.01159C42.7303 8.26977 43.2015 8.40719 43.6802 8.40784ZM7.64676 29.4776L3.56444 33.0693C3.28544 33.3152 3.06374 33.6199 2.91509 33.9617C2.76645 34.3036 2.69451 34.6741 2.7044 35.047C2.71429 35.42 2.80575 35.7861 2.9723 36.1195C3.13884 36.4529 3.37638 36.7453 3.66802 36.9759L16.6526 47.2378C16.938 47.4637 17.2686 47.625 17.6217 47.7109C17.9748 47.7967 18.3421 47.8049 18.6987 47.735C19.0552 47.6651 19.3926 47.5186 19.6878 47.3057C19.9829 47.0928 20.2289 46.8184 20.409 46.5011L22.1875 43.3718C22.7171 42.4399 22.9395 41.3632 22.8228 40.2963C22.7062 39.2294 22.2565 38.2271 21.5382 37.4331L14.7125 29.8815C13.8224 28.8968 12.5835 28.3025 11.2622 28.2265C9.94094 28.1505 8.64276 28.5989 7.64676 29.4751V29.4776ZM12.7471 5.86778H2.52618C1.8562 5.86778 1.21365 6.13539 0.739902 6.61175C0.266151 7.0881 0 7.73417 0 8.40784V27.4989C0.000135251 28.5234 0.308341 29.524 0.884164 30.3692C0.945415 30.3121 1.00774 30.2562 1.0711 30.2016L5.15089 26.6099C6.89393 25.0763 9.16589 24.2916 11.4783 24.4246C13.7907 24.5576 15.9588 25.5977 17.5166 27.3211L24.3423 34.8702C25.5985 36.2593 26.3851 38.0126 26.5893 39.8789C26.7935 41.7452 26.4049 43.6285 25.4791 45.259L23.8244 48.17C24.5383 48.4421 25.3042 48.5481 26.0646 48.4799C26.8251 48.4117 27.5603 48.1711 28.2149 47.7762L39.3554 41.0552C39.6541 40.8748 39.9125 40.6341 40.1142 40.3484C40.3159 40.0627 40.4567 39.7381 40.5276 39.3951C40.5986 39.052 40.5982 38.6979 40.5264 38.355C40.4547 38.0121 40.3131 37.6879 40.1107 37.4026L26.8053 18.6595C26.6521 18.4443 26.4358 18.2825 26.1867 18.1969C25.9376 18.1113 25.6681 18.1061 25.4159 18.182L19.1358 20.0743C17.607 20.5355 15.9825 20.5719 14.4347 20.1797C12.8869 19.7875 11.4736 18.9813 10.3447 17.8467L9.60455 17.1025C8.94366 16.4383 8.43758 15.635 8.12279 14.7504C7.808 13.8658 7.69235 12.922 7.78417 11.987C7.876 11.052 8.17302 10.1492 8.6538 9.34357C9.13459 8.53796 9.78718 7.84967 10.5645 7.32831L12.7471 5.86778Z" />
</svg>