<svg viewBox="0 0 49 45" xmlns="http://www.w3.org/2000/svg">
  <path
    d="M39.2 29.8333H34.3V34.7222H39.2M39.2 20.0556H34.3V24.9444H39.2M44.1 39.6111H24.5V34.7222H29.4V29.8333H24.5V24.9444H29.4V20.0556H24.5V15.1667H44.1M19.6 10.2778H14.7V5.38889H19.6M19.6 20.0556H14.7V15.1667H19.6M19.6 29.8333H14.7V24.9444H19.6M19.6 39.6111H14.7V34.7222H19.6M9.8 10.2778H4.9V5.38889H9.8M9.8 20.0556H4.9V15.1667H9.8M9.8 29.8333H4.9V24.9444H9.8M9.8 39.6111H4.9V34.7222H9.8M24.5 10.2778V0.5H0V44.5H49V10.2778H24.5Z"
    fill="#00559E" />
</svg>