<svg viewBox="0 0 67 67" xmlns="http://www.w3.org/2000/svg">
  <path fill-rule="evenodd" clip-rule="evenodd"
    d="M33.5 7.5C19.1406 7.5 7.5 19.1406 7.5 33.5C7.5 47.8594 19.1406 59.5 33.5 59.5C47.8594 59.5 59.5 47.8594 59.5 33.5C59.5 19.1406 47.8594 7.5 33.5 7.5ZM0.5 33.5C0.5 15.2746 15.2746 0.5 33.5 0.5C51.7254 0.5 66.5 15.2746 66.5 33.5C66.5 51.7254 51.7254 66.5 33.5 66.5C15.2746 66.5 0.5 51.7254 0.5 33.5Z" />
  <path fill-rule="evenodd" clip-rule="evenodd"
    d="M33.5 0.5C35.433 0.5 37 2.067 37 4V32.0503L56.8518 51.9021C58.2186 53.2689 58.2186 55.485 56.8518 56.8518C55.485 58.2186 53.2689 58.2186 51.9021 56.8518L31.0251 35.9749C30.3687 35.3185 30 34.4283 30 33.5V4C30 2.067 31.567 0.5 33.5 0.5Z" />
</svg>