<svg viewBox="0 0 42 53" xmlns="http://www.w3.org/2000/svg">
  <path
    d="M42 14.4395V52.5H0V0.5H28.143L42 14.4395ZM29.0769 13.5H36.4724L29.0769 6.06055V13.5ZM38.7692 16.75H25.8462V3.75H3.23077V49.25H38.7692V16.75ZM6.46154 23.25H16.1538V33H6.46154V23.25ZM9.69231 29.75H12.9231V26.5H9.69231V29.75ZM6.46154 10.25H16.1538V20H6.46154V10.25ZM9.69231 16.75H12.9231V13.5H9.69231V16.75ZM19.3846 26.5H35.5385V29.75H19.3846V26.5ZM6.46154 36.25H16.1538V46H6.46154V36.25ZM9.69231 42.75H12.9231V39.5H9.69231V42.75ZM19.3846 39.5H35.5385V42.75H19.3846V39.5Z" />
</svg>