<svg viewBox="0 0 54 35" xmlns="http://www.w3.org/2000/svg">
  <path
    d="M36.8182 15.0714C40.8927 15.0714 44.1573 11.8171 44.1573 7.78571C44.1573 3.75429 40.8927 0.5 36.8182 0.5C32.7436 0.5 29.4545 3.75429 29.4545 7.78571C29.4545 11.8171 32.7436 15.0714 36.8182 15.0714ZM17.1818 15.0714C21.2564 15.0714 24.5209 11.8171 24.5209 7.78571C24.5209 3.75429 21.2564 0.5 17.1818 0.5C13.1073 0.5 9.81818 3.75429 9.81818 7.78571C9.81818 11.8171 13.1073 15.0714 17.1818 15.0714ZM17.1818 19.9286C11.4627 19.9286 0 22.77 0 28.4286V32.0714C0 33.4071 1.10455 34.5 2.45455 34.5H31.9091C33.2591 34.5 34.3636 33.4071 34.3636 32.0714V28.4286C34.3636 22.77 22.9009 19.9286 17.1818 19.9286ZM36.8182 19.9286C36.1064 19.9286 35.2964 19.9771 34.4373 20.05C34.4864 20.0743 34.5109 20.1229 34.5355 20.1471C37.3336 22.1629 39.2727 24.8586 39.2727 28.4286V32.0714C39.2727 32.9214 39.1009 33.7471 38.8309 34.5H51.5455C52.8955 34.5 54 33.4071 54 32.0714V28.4286C54 22.77 42.5373 19.9286 36.8182 19.9286Z" />
</svg>