<svg viewBox="0 0 47 47" xmlns="http://www.w3.org/2000/svg">
  <path fill-rule="evenodd" clip-rule="evenodd"
    d="M4.91939 0.5C4.43639 0.5 4.00578 0.834778 3.83967 1.33822L0.890556 10.2967C0.797438 10.58 0.749993 10.8763 0.75 11.1746V14.7383C0.75 16.7533 2.22072 18.3889 4.03517 18.3889C5.84961 18.3889 7.32161 16.7533 7.32161 14.7383C7.32161 16.7546 8.79233 18.3889 10.6068 18.3889C12.4212 18.3889 13.8932 16.7533 13.8932 14.7383C13.8932 16.7546 15.3639 18.3889 17.1784 18.3889C18.9928 18.3889 20.4623 16.7559 20.4648 14.7408C20.4648 16.7559 21.9356 18.3889 23.75 18.3889C25.5644 18.3889 27.0352 16.7533 27.0352 14.7383C27.0352 16.7546 28.5072 18.3889 30.3216 18.3889C32.1361 18.3889 33.6055 16.7559 33.6068 14.7408C33.6081 16.7559 35.0788 18.3889 36.8932 18.3889C38.7077 18.3889 40.1784 16.7533 40.1784 14.7383C40.1784 16.7546 41.6491 18.3889 43.4648 18.3889C45.2793 18.3889 46.75 16.7533 46.75 14.7383V11.1746C46.75 10.8763 46.7026 10.58 46.6094 10.2967L43.6603 1.3395C43.4942 0.834778 43.0636 0.5 42.5806 0.5H4.91939Z" />
  <path fill-rule="evenodd" clip-rule="evenodd"
    d="M5.86115 19.9604V29.8888H2.66671C2.49726 29.8888 2.33476 29.9561 2.21494 30.0759C2.09513 30.1957 2.02782 30.3582 2.02782 30.5277V31.8054C2.02782 31.9749 2.09513 32.1374 2.21494 32.2572C2.33476 32.377 2.49726 32.4443 2.66671 32.4443H44.8334C45.0028 32.4443 45.1653 32.377 45.2851 32.2572C45.4049 32.1374 45.4723 31.9749 45.4723 31.8054V30.5277C45.4723 30.3582 45.4049 30.1957 45.2851 30.0759C45.1653 29.9561 45.0028 29.8888 44.8334 29.8888H41.6389V19.9604C41.104 19.7473 40.61 19.4434 40.1784 19.0622C39.8472 19.3543 39.479 19.6018 39.0834 19.7982V29.8888H8.41671V19.7982C8.02108 19.6018 7.65292 19.3543 7.32165 19.0622C6.89232 19.4391 6.40165 19.7458 5.86115 19.9604ZM39.0834 17.4598C39.192 17.3512 39.2942 17.2349 39.39 17.111H39.0834V17.4598ZM40.9668 17.111C41.16 17.3613 41.3861 17.5843 41.6389 17.7742V17.111H40.9668ZM5.86115 17.7742C6.11528 17.5858 6.34155 17.3626 6.53326 17.111H5.86115V17.7742ZM8.11004 17.111H8.41671V17.4598C8.30695 17.3504 8.2045 17.2339 8.11004 17.111ZM3.94448 34.9999C3.77504 34.9999 3.61254 35.0672 3.49272 35.187C3.37291 35.3068 3.30559 35.4693 3.30559 35.6388V45.2221C3.30559 45.561 3.44022 45.886 3.67985 46.1256C3.91948 46.3653 4.24448 46.4999 4.58337 46.4999H42.9167C43.2556 46.4999 43.5806 46.3653 43.8202 46.1256C44.0599 45.886 44.1945 45.561 44.1945 45.2221V35.6388C44.1945 35.4693 44.1272 35.3068 44.0074 35.187C43.8875 35.0672 43.725 34.9999 43.5556 34.9999H3.94448Z" />
  <path
    d="M10.9723 26.6938C10.9723 26.5244 11.0396 26.3619 11.1594 26.2421C11.2792 26.1222 11.4417 26.0549 11.6111 26.0549H15.4445C15.6139 26.0549 15.7764 26.1222 15.8962 26.2421C16.0161 26.3619 16.0834 26.5244 16.0834 26.6938V29.2494C16.0834 29.4188 16.0161 29.5813 15.8962 29.7011C15.7764 29.821 15.6139 29.8883 15.4445 29.8883H11.6111C11.4417 29.8883 11.2792 29.821 11.1594 29.7011C11.0396 29.5813 10.9723 29.4188 10.9723 29.2494V26.6938Z" />
  <path
    d="M13.5277 27.9716C13.5277 27.8022 13.5951 27.6396 13.7149 27.5198C13.8347 27.4 13.9972 27.3327 14.1666 27.3327H18C18.1694 27.3327 18.3319 27.4 18.4517 27.5198C18.5715 27.6396 18.6389 27.8022 18.6389 27.9716V29.2494C18.6389 29.4188 18.5715 29.5813 18.4517 29.7011C18.3319 29.821 18.1694 29.8883 18 29.8883H14.1666C13.9972 29.8883 13.8347 29.821 13.7149 29.7011C13.5951 29.5813 13.5277 29.4188 13.5277 29.2494V27.9716ZM23.75 27.9716C23.75 28.4799 23.548 28.9674 23.1886 29.3269C22.8291 29.6863 22.3416 29.8883 21.8333 29.8883C21.325 29.8883 20.8375 29.6863 20.478 29.3269C20.1186 28.9674 19.9166 28.4799 19.9166 27.9716C19.9166 27.4633 20.1186 26.9758 20.478 26.6163C20.8375 26.2569 21.325 26.0549 21.8333 26.0549C22.3416 26.0549 22.8291 26.2569 23.1886 26.6163C23.548 26.9758 23.75 27.4633 23.75 27.9716Z" />
</svg>