<svg viewBox="0 0 43 41" xmlns="http://www.w3.org/2000/svg">
  <path
    d="M40.1276 0.626709L12.9 10.4821V25.7382L14.5082 26.3201L12.0851 31.2325C11.8092 31.791 11.6549 32.4031 11.6328 33.0273C11.6106 33.6515 11.7212 34.2733 11.9569 34.8504C12.1926 35.4275 12.548 35.9465 12.999 36.3722C13.4499 36.7978 13.9859 37.1202 14.5706 37.3175L23.3512 40.2837C24.3334 40.6083 25.3977 40.5664 26.3522 40.1656C27.3066 39.7648 28.0883 39.0314 28.5563 38.0977L31.3577 32.4181L40.1276 35.5936C40.4519 35.7108 40.7992 35.7474 41.1404 35.7003C41.4816 35.6532 41.8066 35.5236 42.0881 35.3227C42.3696 35.1217 42.5993 34.8551 42.758 34.5453C42.9167 34.2356 42.9997 33.8917 43 33.5427V2.67756C42.9997 2.32853 42.9167 1.98467 42.758 1.67493C42.5993 1.36518 42.3696 1.0986 42.0881 0.897614C41.8066 0.696628 41.4816 0.567116 41.1404 0.519972C40.7992 0.472829 40.4519 0.509434 40.1276 0.626709ZM24.71 36.1493L15.9315 33.1831L18.5868 27.7977L27.2771 30.9448L24.71 36.1493ZM4.3 25.7382H8.6V10.4821H4.3C1.92855 10.4821 0 12.4371 0 14.841V21.3793C0 23.7832 1.92855 25.7382 4.3 25.7382Z" />
</svg>