<svg viewBox="0 0 42 43" xmlns="http://www.w3.org/2000/svg">
  <path d="M15.7305 26.7697L19.2445 19.7417L26.2697 16.2305L22.7557 23.2585L15.7305 26.7697Z" />
  <path fill-rule="evenodd" clip-rule="evenodd"
    d="M0 21.5C0 15.9305 2.21249 10.589 6.15076 6.65076C10.089 2.71249 15.4305 0.5 21 0.5C26.5695 0.5 31.911 2.71249 35.8492 6.65076C39.7875 10.589 42 15.9305 42 21.5C42 27.0695 39.7875 32.411 35.8492 36.3492C31.911 40.2875 26.5695 42.5 21 42.5C15.4305 42.5 10.089 40.2875 6.15076 36.3492C2.21249 32.411 0 27.0695 0 21.5ZM30.6516 13.7272C30.7827 13.4646 30.8279 13.1675 30.7809 12.8777C30.7339 12.588 30.597 12.3204 30.3897 12.1127C30.1823 11.9051 29.9149 11.7678 29.6252 11.7204C29.3356 11.6729 29.0384 11.7177 28.7756 11.8484L17.5756 17.4484C17.3045 17.5832 17.0844 17.8023 16.9484 18.0728L11.3484 29.2728C11.2173 29.5354 11.1721 29.8326 11.2191 30.1223C11.2661 30.412 11.403 30.6796 11.6103 30.8873C11.8177 31.0949 12.0851 31.2322 12.3748 31.2796C12.6644 31.3271 12.9616 31.2823 13.2244 31.1516L24.4244 25.5516C24.6955 25.4168 24.9155 25.1977 25.0516 24.9272L30.6516 13.7272Z" />
</svg>