<svg viewBox="0 0 65 65" xmlns="http://www.w3.org/2000/svg">
  <path fill-rule="evenodd" clip-rule="evenodd"
    d="M1.9051 1.9051C2.80476 1.00543 4.02498 0.5 5.2973 0.5H59.7027C60.975 0.5 62.1952 1.00543 63.0949 1.9051C63.9946 2.80476 64.5 4.02498 64.5 5.2973V59.7027C64.5 60.975 63.9946 62.1952 63.0949 63.0949C62.1952 63.9946 60.975 64.5 59.7027 64.5H5.2973C4.02498 64.5 2.80476 63.9946 1.9051 63.0949C1.00543 62.1952 0.5 60.975 0.5 59.7027V5.2973C0.5 4.02498 1.00543 2.80476 1.9051 1.9051ZM5.2973 3.5C4.82062 3.5 4.36347 3.68936 4.02642 4.02642C3.68936 4.36347 3.5 4.82062 3.5 5.2973V59.7027C3.5 60.1794 3.68936 60.6365 4.02642 60.9736C4.36347 61.3106 4.82062 61.5 5.2973 61.5H59.7027C60.1794 61.5 60.6365 61.3106 60.9736 60.9736C61.3106 60.6365 61.5 60.1794 61.5 59.7027V5.2973C61.5 4.82062 61.3106 4.36347 60.9736 4.02642C60.6365 3.68936 60.1794 3.5 59.7027 3.5H5.2973ZM51.3185 25.46C50.7838 25.2212 50.1976 25.1207 49.6138 25.1679C49.5737 25.1711 49.5334 25.1728 49.4931 25.1728H46.853C46.4648 25.1732 46.0806 25.25 45.7221 25.399C45.3636 25.5479 45.038 25.766 44.7638 26.0408C44.4897 26.3156 44.2723 26.6417 44.1243 27.0005C43.9762 27.3593 43.9002 27.7438 43.9007 28.132L43.9007 28.1355C43.9003 28.5236 43.9764 28.908 44.1245 29.2667C44.2727 29.6254 44.4901 29.9514 44.7642 30.2261C45.0383 30.5008 45.3639 30.7188 45.7223 30.8677C46.0807 31.0165 46.4649 31.0934 46.853 31.0938H49.772C50.5542 31.0945 51.3286 31.2494 52.051 31.5495C52.7733 31.8497 53.4295 32.2892 53.982 32.8429C54.5344 33.3967 54.9724 34.0539 55.2708 34.7769C55.5691 35.4996 55.7221 36.2738 55.7213 37.0556C55.7218 37.8371 55.5685 38.6111 55.2701 39.3334C54.9714 40.0563 54.5332 40.7134 53.9805 41.267C53.4279 41.8205 52.7716 42.2598 52.0491 42.5597C51.3267 42.8596 50.5522 43.0142 49.77 43.0147H47.1853C46.121 43.0899 45.0541 42.9015 44.0794 42.4658C43.0852 42.0214 42.2187 41.3339 41.5598 40.4667C41.0587 39.8071 41.1871 38.8661 41.8468 38.3649C42.5064 37.8638 43.4474 37.9922 43.9486 38.6519C44.3029 39.1182 44.7689 39.488 45.3037 39.727C45.8384 39.966 46.4247 40.0666 47.0085 40.0196C47.0485 40.0164 47.0887 40.0147 47.1289 40.0147H49.768C50.1562 40.0145 50.5405 39.9377 50.899 39.7889C51.2575 39.6401 51.5832 39.4221 51.8575 39.1474C52.1317 38.8727 52.3492 38.5466 52.4974 38.1879C52.6456 37.8291 52.7217 37.4447 52.7213 37.0565V37.053C52.7218 36.6648 52.6458 36.2803 52.4977 35.9215C52.3496 35.5627 52.1323 35.2366 51.8582 34.9618C51.584 34.687 51.2584 34.4689 50.8999 34.3199C50.5415 34.171 50.1572 34.0941 49.769 34.0938H46.85C46.0679 34.093 45.2937 33.9382 44.5715 33.6381C43.8493 33.3381 43.1932 32.8988 42.6407 32.3453C42.0883 31.7917 41.6503 31.1348 41.3517 30.4119C41.0534 29.6897 40.9002 28.9157 40.9007 28.1343C40.8999 27.3526 41.053 26.5785 41.3512 25.856C41.6496 25.1329 42.0876 24.4757 42.64 23.922C43.1925 23.3682 43.8487 22.9287 44.571 22.6286C45.2934 22.3284 46.0678 22.1736 46.85 22.1728H49.4365C50.5007 22.0974 51.5673 22.2855 52.542 22.7208C53.5362 23.1649 54.4028 23.852 55.0619 24.7188C55.5632 25.3783 55.4351 26.3194 54.7756 26.8208C54.1162 27.3222 53.1751 27.194 52.6737 26.5346C52.3193 26.0684 51.8532 25.6989 51.3185 25.46ZM40.9007 28.1343C40.9007 28.1337 40.9007 28.1331 40.9007 28.1325L42.4007 28.134L40.9007 28.136C40.9007 28.1354 40.9007 28.1348 40.9007 28.1343ZM55.7213 37.0556C55.7213 37.056 55.7213 37.0565 55.7213 37.057L54.2213 37.055L55.7213 37.0535C55.7213 37.0542 55.7213 37.0549 55.7213 37.0556ZM10.5336 22.2365C11.1673 22.0456 11.8512 22.2926 12.2167 22.8443L21.2868 36.5347V23.6728C21.2868 22.8443 21.9584 22.1728 22.7868 22.1728C23.6152 22.1728 24.2868 22.8443 24.2868 23.6728V41.5147C24.2868 42.1765 23.8531 42.7601 23.2194 42.951C22.5857 43.1419 21.9018 42.8949 21.5363 42.3432L12.4662 28.6528V41.5147C12.4662 42.3432 11.7946 43.0147 10.9662 43.0147C10.1378 43.0147 9.46622 42.3432 9.46622 41.5147V23.6728C9.46622 23.011 9.89993 22.4274 10.5336 22.2365ZM25.5079 23.6743C25.5079 22.8458 26.1795 22.1743 27.0079 22.1743H32.8488L32.8725 22.1744C34.839 22.2055 36.7146 23.0085 38.0943 24.4101C39.474 25.8118 40.2473 27.6998 40.2473 29.6666C40.2473 31.6334 39.474 33.5213 38.0943 34.923C36.7146 36.3247 34.839 37.1277 32.8725 37.1587L32.8488 37.1589H28.5079V41.5147C28.5079 42.3432 27.8363 43.0147 27.0079 43.0147C26.1795 43.0147 25.5079 42.3432 25.5079 41.5147V23.6743ZM28.5079 34.1589H32.8361C34.0113 34.1375 35.1315 33.6564 35.9563 32.8185C36.7836 31.978 37.2473 30.8459 37.2473 29.6666C37.2473 28.4872 36.7836 27.3551 35.9563 26.5147C35.1315 25.6768 34.0113 25.1957 32.8361 25.1743H28.5079V34.1589Z" />
</svg>