<svg viewBox="0 0 45 45" xmlns="http://www.w3.org/2000/svg">
  <path
    d="M43.8082 1.09705C43.7902 1.0101 43.7479 0.930078 43.686 0.866354C43.6242 0.802629 43.5455 0.757844 43.4592 0.73725C37.7015 -0.670473 24.3979 4.34602 17.1902 11.5508C15.9047 12.8259 14.7327 14.2107 13.6876 15.6894C11.4649 15.4928 9.24227 15.657 7.34794 16.4827C2.00311 18.8351 0.44695 24.9733 0.0134266 27.6138C-0.0111637 27.7583 -0.00188823 27.9065 0.0405231 28.0469C0.0829345 28.1872 0.157325 28.3158 0.257845 28.4225C0.358364 28.5292 0.482271 28.6111 0.619819 28.6619C0.757368 28.7126 0.904807 28.7307 1.05054 28.7148L9.63352 27.7681C9.63965 28.4152 9.6787 29.0616 9.75051 29.7047C9.7937 30.1513 9.99195 30.5687 10.3108 30.8844L13.6345 34.2002C13.9505 34.5187 14.3677 34.7168 14.8142 34.7605C15.4537 34.8321 16.0965 34.8711 16.74 34.8775L15.7982 43.4497C15.7825 43.5953 15.8008 43.7427 15.8515 43.8801C15.9023 44.0176 15.9843 44.1414 16.0909 44.2419C16.1976 44.3424 16.3261 44.4168 16.4663 44.4592C16.6066 44.5017 16.7547 44.5112 16.8992 44.4868C19.5348 44.0641 25.6837 42.5079 28.0224 37.1631C28.8482 35.2687 29.0172 33.0569 28.8265 30.845C30.3088 29.7999 31.6972 28.6276 32.976 27.3415C40.2063 20.1475 45.1943 7.14082 43.8082 1.09705ZM25.7624 18.7595C25.1022 18.0997 24.6524 17.2589 24.4701 16.3435C24.2878 15.4281 24.3811 14.4792 24.7381 13.6168C25.0952 12.7544 25.7 12.0172 26.476 11.4986C27.252 10.98 28.1645 10.7032 29.0979 10.7032C30.0312 10.7032 30.9437 10.98 31.7197 11.4986C32.4957 12.0172 33.1005 12.7544 33.4576 13.6168C33.8146 14.4792 33.9079 15.4281 33.7256 16.3435C33.5433 17.2589 33.0936 18.0997 32.4333 18.7595C31.9955 19.1979 31.4756 19.5457 30.9033 19.783C30.3309 20.0203 29.7174 20.1424 29.0979 20.1424C28.4783 20.1424 27.8648 20.0203 27.2924 19.783C26.7201 19.5457 26.2002 19.1979 25.7624 18.7595Z" />
  <path
    d="M13.4082 36.6013C12.8695 37.141 12.0054 37.3513 10.9653 37.5312C8.62862 37.9294 6.5652 35.9102 6.98497 33.5479C7.1452 32.6524 7.61903 31.397 7.91395 31.1021C7.97841 31.0389 8.02131 30.957 8.03657 30.868C8.05183 30.779 8.03866 30.6875 7.99893 30.6064C7.95921 30.5253 7.89495 30.4588 7.81529 30.4163C7.73562 30.3739 7.64459 30.3576 7.55513 30.3697C6.24843 30.5296 5.03277 31.1221 4.10169 32.0527C1.79055 34.3658 1.57231 42.9488 1.57231 42.9488C1.57231 42.9488 10.1602 42.7306 12.4714 40.4175C13.4049 39.4871 13.9981 38.2696 14.1553 36.9611C14.1917 36.5502 13.6913 36.3054 13.4082 36.6013Z" />
</svg>