<svg viewBox="0 0 38 41" xmlns="http://www.w3.org/2000/svg">
  <path
    d="M16.7578 1.26628C18.0815 0.244572 19.9213 0.244572 21.245 1.26628L36.9578 13.3768C38.9591 14.9189 37.8857 18.1373 35.3713 18.1501H2.62831C0.117165 18.1373 -0.959491 14.9189 1.04499 13.3768L16.7578 1.26628ZM18.9998 12.5626C19.6297 12.5626 20.2338 12.3103 20.6792 11.8612C21.1246 11.4121 21.3748 10.803 21.3748 10.1679C21.3748 9.53285 21.1246 8.92376 20.6792 8.47468C20.2338 8.0256 19.6297 7.77331 18.9998 7.77331C18.3699 7.77331 17.7659 8.0256 17.3205 8.47468C16.8751 8.92376 16.6248 9.53285 16.6248 10.1679C16.6248 10.803 16.8751 11.4121 17.3205 11.8612C17.7659 12.3103 18.3699 12.5626 18.9998 12.5626ZM4.74996 21.3429V30.9215H9.49991V21.3429H4.74996ZM12.6666 21.3429V30.9215H17.4165V21.3429H12.6666ZM20.5831 21.3429V30.9215H25.3331V21.3429H20.5831ZM28.4997 21.3429V30.9215H33.2497V21.3429H28.4997ZM0 38.1054C0 35.9023 1.77332 34.1143 3.9583 34.1143H34.0414C36.2263 34.1143 37.9997 35.9023 37.9997 38.1054V38.9036C37.9997 39.327 37.8328 39.733 37.5359 40.0324C37.239 40.3318 36.8363 40.5 36.4163 40.5H1.58332C1.1634 40.5 0.760674 40.3318 0.463744 40.0324C0.166814 39.733 0 39.327 0 38.9036V38.1054Z" />
</svg>