<svg viewBox="0 0 51 44" xmlns="http://www.w3.org/2000/svg">
  <path fill-rule="evenodd" clip-rule="evenodd"
    d="M17.8077 2.5C17.8077 1.11929 18.927 0 20.3077 0H30.6923C32.073 0 33.1923 1.11929 33.1923 2.5C33.1923 3.88071 32.073 5 30.6923 5H28V8.60122C33.6982 9.16331 39.0621 11.6347 43.1595 15.6489C47.8534 20.2475 50.5 26.4957 50.5 33.0217C50.5 33.6848 50.2366 34.3207 49.7678 34.7895C49.2989 35.2583 48.663 35.5217 48 35.5217H3C2.33696 35.5217 1.70107 35.2583 1.23223 34.7895C0.763392 34.3207 0.5 33.6848 0.5 33.0217C0.5 26.4957 3.14664 20.2475 7.84054 15.6489C11.9379 11.6347 17.3018 9.16331 23 8.60122V5H20.3077C18.927 5 17.8077 3.88071 17.8077 2.5ZM25.5 13.4783C20.1793 13.4783 15.0866 15.5495 11.3397 19.2204C8.2035 22.293 6.22488 26.2744 5.66427 30.5217H45.3357C44.7751 26.2744 42.7965 22.293 39.6603 19.2204C35.9134 15.5495 30.8207 13.4783 25.5 13.4783ZM0.5 41.5C0.5 40.1193 1.61929 39 3 39H48C49.3807 39 50.5 40.1193 50.5 41.5C50.5 42.8807 49.3807 44 48 44H3C1.61929 44 0.5 42.8807 0.5 41.5Z" />
</svg>