<svg viewBox="0 0 41 43" xmlns="http://www.w3.org/2000/svg">
  <path
    d="M20.5 21.5H26.6667C29.9377 21.5 33.0747 20.1655 35.3877 17.79C37.7006 15.4146 39 12.1927 39 8.83333V6.72222H32.8333C29.5623 6.72222 26.4253 8.05674 24.1124 10.4322C21.7994 12.8077 20.5 16.0295 20.5 19.3889H14.3333C11.0623 19.3889 7.9253 18.0544 5.61235 15.6789C3.2994 13.3034 2 10.0816 2 6.72222V2.5H8.16667C11.4377 2.5 14.5747 3.83452 16.8877 6.20998C19.2006 8.58544 20.5 11.8073 20.5 15.1667V27.8333M10.2222 27.8333H30.7778V36.2778C30.7778 37.3976 30.3446 38.4715 29.5737 39.2633C28.8027 40.0552 27.757 40.5 26.6667 40.5H14.3333C13.243 40.5 12.1973 40.0552 11.4263 39.2633C10.6554 38.4715 10.2222 37.3976 10.2222 36.2778V27.8333Z"
    stroke="#00559E" stroke-width="3.5" stroke-linecap="round" stroke-linejoin="round" />
</svg>