<svg viewBox="0 0 50 52" xmlns="http://www.w3.org/2000/svg">
  <path
    d="M40.627 21.2157C40.627 25.7871 39.1718 30.0099 36.7205 33.436L49.0844 46.0547C50.3052 47.2996 50.3052 49.3214 49.0844 50.5663C47.8637 51.8112 45.8811 51.8112 44.6604 50.5663L32.2965 37.9476C28.937 40.4574 24.7961 41.9314 20.3135 41.9314C9.09224 41.9314 0 32.6592 0 21.2157C0 9.77227 9.09224 0.5 20.3135 0.5C31.5347 0.5 40.627 9.77227 40.627 21.2157ZM20.3135 35.5574C22.1603 35.5574 23.989 35.1864 25.6952 34.4657C27.4015 33.7449 28.9518 32.6885 30.2577 31.3568C31.5636 30.025 32.5994 28.444 33.3062 26.704C34.0129 24.964 34.3767 23.0991 34.3767 21.2157C34.3767 19.3323 34.0129 17.4674 33.3062 15.7274C32.5994 13.9874 31.5636 12.4064 30.2577 11.0746C28.9518 9.74289 27.4015 8.68649 25.6952 7.96576C23.989 7.24502 22.1603 6.87407 20.3135 6.87407C18.4667 6.87407 16.638 7.24502 14.9317 7.96576C13.2255 8.68649 11.6752 9.74289 10.3693 11.0746C9.06343 12.4064 8.02754 13.9874 7.3208 15.7274C6.61406 17.4674 6.2503 19.3323 6.2503 21.2157C6.2503 23.0991 6.61406 24.964 7.3208 26.704C8.02754 28.444 9.06343 30.025 10.3693 31.3568C11.6752 32.6885 13.2255 33.7449 14.9317 34.4657C16.638 35.1864 18.4667 35.5574 20.3135 35.5574Z" />
</svg>